<svg width="24" height="25" viewBox="0 0 24 25" fill="none" xmlns="http://www.w3.org/2000/svg">
<g id="Social icon" clip-path="url(#clip0_1191_2458)">
<path id="path4" d="M20.8428 17.6447C20.5101 18.4133 20.1163 19.1208 19.66 19.7713C19.0381 20.658 18.5288 21.2719 18.1364 21.6127C17.528 22.1722 16.8762 22.4587 16.1782 22.475C15.6771 22.475 15.0728 22.3324 14.3693 22.0432C13.6636 21.7553 13.015 21.6127 12.422 21.6127C11.8 21.6127 11.133 21.7553 10.4195 22.0432C9.70493 22.3324 9.12928 22.4832 8.68916 22.4981C8.01981 22.5266 7.35264 22.2319 6.68668 21.6127C6.26164 21.242 5.72999 20.6064 5.09309 19.7061C4.40976 18.7446 3.84796 17.6297 3.40784 16.3587C2.93648 14.9857 2.7002 13.6563 2.7002 12.3692C2.7002 10.8948 3.01878 9.62321 3.65689 8.5576C4.1584 7.70166 4.82557 7.02647 5.66059 6.53081C6.49562 6.03514 7.39786 5.78256 8.36949 5.7664C8.90114 5.7664 9.59833 5.93085 10.4647 6.25405C11.3287 6.57834 11.8834 6.74279 12.1266 6.74279C12.3085 6.74279 12.9247 6.5505 13.9694 6.16714C14.9573 5.81162 15.7911 5.66441 16.4742 5.7224C18.3251 5.87178 19.7157 6.60142 20.6405 7.91595C18.9851 8.91896 18.1662 10.3238 18.1825 12.126C18.1975 13.5297 18.7067 14.6979 19.7076 15.6254C20.1611 16.0558 20.6676 16.3885 21.2312 16.6248C21.109 16.9793 20.98 17.3188 20.8428 17.6447ZM16.5978 0.940125C16.5978 2.04038 16.1958 3.06768 15.3946 4.01854C14.4277 5.14892 13.2582 5.80211 11.99 5.69904C11.9738 5.56705 11.9645 5.42812 11.9645 5.28214C11.9645 4.2259 12.4243 3.09552 13.2408 2.17127C13.6485 1.70331 14.167 1.31421 14.7957 1.00381C15.4231 0.69805 16.0166 0.528957 16.5747 0.5C16.591 0.647086 16.5978 0.794182 16.5978 0.940111V0.940125Z" fill="black"/>
</g>
<defs>
<clipPath id="clip0_1191_2458">
<rect width="24" height="24" fill="white" transform="translate(0 0.5)"/>
</clipPath>
</defs>
</svg>
