<svg width="24" height="24" viewBox="0 0 24 24" fill="none" xmlns="http://www.w3.org/2000/svg">
<g id="fluent:sport-soccer-24-filled">
<path id="Vector" d="M12 2C6.477 2 2 6.477 2 12C2 17.523 6.477 22 12 22C17.523 22 22 17.523 22 12C22 6.477 17.523 2 12 2ZM8.244 4.373L11.252 6.173V8.366L8.461 10.394L6.417 9.687L5.83 6.153C6.5228 5.42127 7.34019 4.81855 8.244 4.373ZM3.621 13.439L5.948 11.112L7.988 11.817L9.07 15.15L8.1 16.725L4.807 16.531C4.21277 15.5881 3.80979 14.5375 3.621 13.439ZM10.53 20.373L9.346 17.564L10.309 15.997H13.681L14.593 17.578L13.553 20.358C12.5541 20.5415 11.5306 20.5465 10.53 20.373ZM18.892 16.976L15.868 16.786L14.93 15.162L16.017 11.817L18.03 11.121L20.342 13.641C20.1049 14.8443 19.6103 15.982 18.892 16.976ZM18.172 6.156L17.583 9.689L15.543 10.394L12.752 8.366V6.172L15.754 4.372C16.6596 4.81835 17.4783 5.42245 18.172 6.156Z" fill="#525056"/>
</g>
</svg>
