<?xml version="1.0" standalone="no"?>
<!DOCTYPE svg PUBLIC "-//W3C//DTD SVG 20010904//EN"
        "http://www.w3.org/TR/2001/REC-SVG-20010904/DTD/svg10.dtd">
<svg version="1.0" xmlns="http://www.w3.org/2000/svg"
     width="336.000000pt" height="301.000000pt" viewBox="0 0 336.000000 301.000000"
     preserveAspectRatio="xMidYMid meet">

    <g transform="translate(0.000000,301.000000) scale(0.100000,-0.100000)"
       fill="#ffffff" stroke="none">
        <path d="M1215 2646 c-45 -20 -83 -70 -90 -119 -3 -23 -5 -310 -3 -637 l3
-595 23 -36 c27 -45 75 -69 136 -69 43 0 46 -2 36 -19 -5 -11 -10 -38 -10 -60
0 -49 45 -106 91 -116 23 -5 28 -10 20 -18 -6 -6 -11 -33 -11 -60 0 -42 5 -54
33 -82 27 -27 44 -34 89 -40 50 -6 57 -10 63 -34 4 -14 23 -62 42 -106 32 -72
36 -90 39 -179 3 -105 12 -129 40 -105 14 11 16 29 12 114 -4 90 -9 110 -46
197 -35 80 -42 108 -42 160 1 87 35 177 122 322 65 108 73 126 76 180 2 34 -6
118 -17 189 -26 160 -26 200 0 254 38 79 124 120 149 73 6 -11 29 -114 50
-229 22 -115 52 -242 66 -282 40 -112 87 -179 125 -179 26 0 25 32 -2 56 -50
46 -59 82 -59 251 l1 158 35 -40 c59 -68 151 -210 174 -272 44 -115 31 -181
-108 -543 l-56 -145 0 -135 c-1 -129 0 -135 19 -135 19 0 20 9 26 130 6 115
10 139 38 210 63 157 139 381 151 443 25 137 -37 277 -216 493 l-63 76 -3 414
c-3 393 -4 416 -23 448 -11 19 -33 43 -48 55 -28 20 -39 21 -430 23 -319 2
-408 0 -432 -11z m825 -51 c16 -8 34 -24 40 -34 6 -13 10 -194 9 -518 l-1
-498 -28 151 c-37 200 -55 234 -130 234 -91 0 -179 -113 -180 -230 0 -30 9
-111 20 -180 24 -155 25 -184 0 -237 l-19 -43 -255 0 -256 0 -32 29 -33 29 -3
596 c-2 407 1 609 8 636 8 29 21 47 43 60 30 19 53 20 410 20 318 0 383 -2
407 -15z m-332 -1413 c-1 -5 -19 -38 -38 -75 l-35 -67 -111 0 c-97 0 -115 3
-138 21 -41 32 -31 99 17 119 28 11 310 13 305 2z m-103 -219 c-5 -16 -11 -46
-14 -68 -6 -39 -7 -40 -50 -43 -54 -4 -81 17 -81 65 0 51 29 73 96 73 l56 0
-7 -27z"/>
    </g>
</svg>
