<svg width="32" height="32" viewBox="0 0 32 32" fill="none" xmlns="http://www.w3.org/2000/svg">
<path d="M3.19922 3.2C3.19922 1.43269 4.63191 0 6.39922 0H19.1992L28.7992 9.6V28.8C28.7992 30.5673 27.3665 32 25.5992 32H6.39922C4.63191 32 3.19922 30.5673 3.19922 28.8V3.2Z" fill="#9155FD"/>
<path opacity="0.3" d="M19.1992 0L28.7992 9.6H22.3992C20.6319 9.6 19.1992 8.16731 19.1992 6.4V0Z" fill="white"/>
<path d="M10.5196 20.1635V25.3999H9.41254V20.1635H10.5196ZM11.4305 20.1635H12.7958L14.2379 23.6817H14.2993L15.7413 20.1635H17.1066V25.3999H16.0328V21.9917H15.9893L14.6342 25.3743H13.9029L12.5478 21.9789H12.5044V25.3999H11.4305V20.1635ZM21.4909 21.8562C21.4552 21.7317 21.4049 21.6218 21.3401 21.5263C21.2753 21.4292 21.1961 21.3473 21.1023 21.2809C21.0103 21.2127 20.9046 21.1607 20.7853 21.1249C20.6677 21.0891 20.5373 21.0712 20.3941 21.0712C20.1265 21.0712 19.8912 21.1377 19.6884 21.2706C19.4873 21.4036 19.3304 21.5971 19.2179 21.851C19.1054 22.1033 19.0492 22.4118 19.0492 22.7766C19.0492 23.1414 19.1046 23.4516 19.2154 23.7073C19.3262 23.963 19.483 24.1581 19.6858 24.2928C19.8887 24.4258 20.1282 24.4922 20.4043 24.4922C20.6549 24.4922 20.8688 24.4479 21.0461 24.3593C21.225 24.2689 21.3614 24.1419 21.4552 23.9783C21.5506 23.8147 21.5983 23.6212 21.5983 23.3979L21.8233 23.4312H20.4733V22.5976H22.6645V23.2573C22.6645 23.7175 22.5674 24.113 22.373 24.4437C22.1787 24.7726 21.9111 25.0266 21.5702 25.2056C21.2293 25.3829 20.839 25.4715 20.3992 25.4715C19.9083 25.4715 19.477 25.3633 19.1054 25.1468C18.7338 24.9286 18.4441 24.6192 18.2361 24.2187C18.0299 23.8164 17.9267 23.3391 17.9267 22.7868C17.9267 22.3624 17.9881 21.984 18.1108 21.6516C18.2353 21.3175 18.4091 21.0346 18.6324 20.8027C18.8557 20.5709 19.1157 20.3945 19.4123 20.2735C19.7088 20.1525 20.0302 20.0919 20.3762 20.0919C20.6728 20.0919 20.9489 20.1354 21.2046 20.2223C21.4603 20.3076 21.687 20.4286 21.8847 20.5854C22.0841 20.7422 22.2469 20.9289 22.373 21.1454C22.4992 21.3601 22.5802 21.5971 22.6159 21.8562H21.4909Z" fill="white"/>
</svg>
