<?xml version="1.0" standalone="no"?>
<!DOCTYPE svg PUBLIC "-//W3C//DTD SVG 20010904//EN"
    "http://www.w3.org/TR/2001/REC-SVG-20010904/DTD/svg10.dtd">
<svg version="1.0" xmlns="http://www.w3.org/2000/svg"
     width="3508.000000pt" height="1630.000000pt" viewBox="0 0 3508.000000 1630.000000"
     preserveAspectRatio="xMidYMid meet">

    <g transform="translate(0.000000,1630.000000) scale(0.100000,-0.100000)"
       fill="#9155FD" stroke="none">
        <path d="M6350 13624 c-19 -2 -91 -9 -160 -14 -754 -65 -1538 -312 -2212 -699
-1394 -799 -2363 -2156 -2667 -3731 -103 -539 -123 -1153 -55 -1700 131 -1053
553 -2019 1244 -2850 132 -159 509 -536 665 -666 662 -550 1401 -928 2207
-1128 449 -112 844 -159 1323 -159 471 0 869 47 1305 154 1427 351 2644 1253
3410 2529 99 166 278 520 350 695 597 1452 551 3073 -129 4480 -698 1445
-2016 2527 -3561 2924 -270 69 -504 112 -810 147 -127 14 -818 28 -910 18z
m-691 -1009 c549 -399 626 -463 706 -589 54 -85 100 -189 127 -287 23 -83 23
-90 23 -664 0 -640 3 -607 -66 -787 l-30 -77 -1052 -4 c-1020 -3 -1055 -4
-1142 -24 -178 -41 -324 -113 -467 -230 -118 -96 -248 -276 -298 -414 -13 -35
-26 -68 -31 -73 -20 -23 -203 121 -289 230 -101 126 -134 210 -351 879 -111
341 -204 625 -206 631 -2 6 35 60 83 120 601 755 1362 1308 2264 1644 146 55
156 58 179 43 13 -9 261 -188 550 -398z m2951 299 c145 -58 481 -221 625 -304
434 -249 859 -585 1197 -947 173 -184 388 -447 388 -474 0 -31 -396 -1223
-428 -1289 -48 -98 -137 -216 -215 -283 -69 -59 -121 -97 -134 -97 -5 0 -14
30 -21 66 -42 223 -206 433 -417 534 -186 90 -81 83 -1446 87 l-1206 4 -22 77
c-55 198 -54 182 -58 742 -5 563 -1 621 44 765 46 147 125 274 240 387 39 38
299 234 606 457 l539 390 96 -35 c53 -19 149 -55 212 -80z m792 -3055 c127
-41 239 -148 289 -276 19 -48 23 -78 24 -168 0 -106 -1 -112 -36 -185 -61
-125 -147 -203 -277 -253 l-57 -22 -1885 -5 -1885 -5 -50 -24 c-66 -33 -125
-94 -161 -167 -25 -51 -29 -70 -29 -144 1 -65 6 -96 22 -132 43 -94 109 -157
205 -196 40 -16 149 -17 1373 -22 l1330 -5 57 -28 c88 -43 152 -107 195 -195
37 -74 38 -79 38 -186 0 -101 -3 -116 -28 -167 -51 -106 -140 -184 -252 -225
-46 -17 -105 -19 -760 -24 l-710 -5 -50 -24 c-107 -53 -180 -162 -192 -283
-10 -111 6 -145 208 -439 345 -502 348 -508 356 -669 9 -167 -43 -305 -157
-420 -217 -218 -561 -225 -775 -17 -39 38 -345 441 -800 1052 -406 545 -925
1241 -1154 1547 -267 357 -431 585 -457 637 -75 145 -97 292 -70 450 52 298
258 525 547 601 72 18 135 19 2576 19 2501 1 2503 1 2565 -20z m935 -750 c105
-14 247 -62 333 -113 38 -22 315 -219 615 -436 l546 -395 -6 -145 c-22 -545
-99 -988 -255 -1460 -149 -453 -331 -828 -593 -1227 l-100 -153 -691 0 c-429
0 -716 4 -756 11 -100 15 -251 71 -342 125 -158 94 -213 160 -834 1014 l-563
775 287 6 c325 7 367 15 517 91 112 58 244 190 303 305 112 217 113 468 2 681
-96 186 -254 313 -460 372 -62 18 -112 23 -282 27 -194 5 -208 7 -208 24 0 18
25 19 723 19 423 0 750 4 791 10 255 37 449 178 601 434 21 36 224 55 372 35z
m-6995 -25 c34 -6 38 -10 43 -43 29 -190 72 -319 144 -438 26 -43 406 -559
844 -1146 438 -588 797 -1073 797 -1079 0 -21 -62 -111 -327 -475 -161 -222
-295 -396 -337 -439 -131 -131 -291 -216 -481 -255 -83 -17 -146 -19 -803 -19
l-713 0 -103 158 c-139 212 -212 340 -327 577 -325 669 -481 1305 -513 2090
l-4 110 571 415 c314 228 603 431 643 450 80 41 159 68 249 86 65 13 257 18
317 8z m4558 -2860 c355 -486 662 -913 682 -947 50 -82 95 -208 114 -321 17
-97 14 -257 -7 -346 -14 -64 -428 -1333 -437 -1342 -4 -4 -72 -25 -152 -48
-920 -260 -1862 -263 -2782 -9 -81 23 -154 46 -162 53 -17 13 -418 1245 -442
1357 -12 55 -15 109 -11 214 9 271 44 343 407 839 148 203 276 376 283 383 12
12 52 -37 274 -334 143 -192 282 -368 309 -392 164 -145 339 -217 554 -228
320 -15 605 129 780 394 95 146 140 301 140 487 0 138 -30 268 -87 381 -21 42
-138 222 -261 400 -123 179 -220 329 -217 335 4 6 76 10 188 10 l182 -1 645
-885z"/>
        <path d="M15675 10291 c-183 -35 -311 -85 -450 -175 -99 -65 -208 -165 -275
-255 -100 -132 -189 -338 -224 -516 -9 -44 -147 -1023 -306 -2175 -159 -1152
-292 -2107 -295 -2122 l-4 -28 584 0 c430 0 585 3 585 11 0 7 70 506 155 1111
85 604 155 1103 155 1109 0 5 387 9 1018 9 l1017 0 49 373 c27 204 51 384 53
400 l6 27 -1012 0 c-956 0 -1011 1 -1011 18 0 9 31 238 69 508 49 340 77 509
92 550 45 122 110 187 228 227 l66 22 1020 3 1020 3 69 411 c50 304 65 412 56
418 -12 7 -243 33 -455 50 -293 24 -561 31 -1310 35 -754 5 -806 4 -900 -14z"/>
        <path d="M23765 9828 c-2 -7 -36 -240 -76 -518 -39 -278 -75 -509 -79 -513 -4
-5 -159 -17 -344 -27 -185 -9 -338 -19 -340 -21 -2 -2 -22 -152 -45 -334 -23
-181 -45 -338 -47 -347 -5 -17 17 -18 333 -20 l339 -3 -153 -1050 c-84 -577
-155 -1095 -159 -1150 -12 -179 29 -368 107 -503 19 -31 75 -98 124 -148 81
-81 102 -97 205 -147 184 -91 315 -116 591 -117 201 0 425 19 649 55 164 27
359 71 374 85 7 7 -20 476 -40 702 l-6 67 -332 4 c-220 2 -343 7 -367 15 -54
18 -100 53 -123 91 -42 73 -38 122 108 1141 75 519 136 948 136 952 0 4 237 9
527 10 l527 3 53 360 c28 198 52 363 53 368 0 4 -236 7 -525 7 -289 0 -525 4
-525 8 0 11 138 979 144 1015 l6 27 -556 0 c-435 0 -556 -3 -559 -12z"/>
        <path d="M31765 8879 c-355 -27 -667 -104 -905 -225 -345 -175 -567 -441 -733
-879 -106 -280 -194 -687 -228 -1056 -17 -193 -7 -575 20 -715 119 -628 499
-941 1271 -1051 183 -26 797 -26 990 0 629 85 990 284 1255 690 243 374 409
1041 422 1702 6 286 -6 418 -51 597 -148 583 -587 873 -1420 938 -149 12 -461
11 -621 -1z m565 -833 c204 -44 314 -150 355 -341 20 -93 20 -381 0 -573 -22
-208 -59 -430 -106 -619 -73 -300 -139 -442 -264 -569 -93 -94 -175 -139 -320
-176 -123 -31 -436 -33 -560 -5 -156 37 -258 105 -311 209 -76 149 -81 429
-18 882 120 858 307 1144 789 1206 100 13 346 5 435 -14z"/>
        <path d="M18525 7358 c-208 -1498 -219 -1597 -196 -1758 68 -463 444 -712
1036 -687 465 19 893 221 1385 653 58 50 114 102 125 114 11 12 32 30 46 40
l25 19 -4 -360 -5 -359 441 0 440 0 6 38 c4 20 119 856 256 1857 137 1001 252
1832 255 1848 l5 27 -559 0 -559 0 -6 -27 c-3 -16 -76 -536 -161 -1158 -85
-621 -157 -1139 -160 -1151 -9 -39 -391 -331 -572 -437 -159 -93 -341 -147
-500 -147 -188 0 -289 57 -324 185 -25 87 -11 205 170 1465 100 690 181 1258
181 1262 0 4 -253 8 -563 8 l-562 0 -200 -1432z"/>
        <path d="M26250 8778 c-1 -7 -22 -183 -49 -390 l-47 -378 993 -2 994 -3 -1173
-1101 -1174 -1101 -47 -374 c-26 -206 -47 -382 -47 -391 0 -17 87 -18 1693
-18 l1693 0 48 353 c27 193 51 367 53 384 l6 33 -1033 2 -1033 3 1174 1102
1174 1102 48 388 c26 213 48 391 47 396 0 4 -747 7 -1660 7 -1321 0 -1660 -3
-1660 -12z"/>
    </g>
</svg>
