<?xml version="1.0" standalone="no"?>
<!DOCTYPE svg PUBLIC "-//W3C//DTD SVG 20010904//EN"
        "http://www.w3.org/TR/2001/REC-SVG-20010904/DTD/svg10.dtd">
<svg version="1.0" xmlns="http://www.w3.org/2000/svg"
     width="336.000000pt" height="301.000000pt" viewBox="0 0 336.000000 301.000000"
     preserveAspectRatio="xMidYMid meet">

    <g transform="translate(0.000000,301.000000) scale(0.100000,-0.100000)"
       fill="#ffffff" stroke="none">
        <path d="M493 2783 c-29 -11 -11 -55 58 -140 39 -48 107 -143 152 -210 45 -67
90 -125 100 -129 22 -7 47 12 47 38 0 23 -108 186 -215 323 -97 126 -106 133
-142 118z"/>
        <path d="M896 2764 c-19 -19 -20 -38 -3 -52 7 -6 143 -68 302 -137 159 -69
296 -131 303 -139 7 -7 53 -91 101 -187 55 -110 94 -175 105 -177 21 -5 46 15
46 37 0 9 -29 75 -64 148 -55 113 -61 131 -43 124 12 -5 111 -48 220 -95 163
-71 202 -84 218 -75 14 7 19 18 17 36 -3 24 -45 44 -588 279 -321 140 -588
254 -592 254 -3 0 -14 -7 -22 -16z"/>
        <path d="M1052 2558 c-20 -20 -15 -33 52 -135 35 -54 88 -142 116 -197 43 -79
49 -97 34 -93 -115 33 -827 217 -841 217 -43 0 -59 -54 -21 -70 20 -8 473
-130 485 -130 8 0 85 -176 117 -270 18 -52 39 -126 47 -163 8 -45 19 -72 30
-78 21 -11 45 -3 54 19 13 34 -37 219 -97 360 -22 51 -39 95 -37 97 2 2 139
-33 304 -76 165 -44 311 -79 325 -77 20 2 25 8 25 33 0 33 -12 39 -190 85
l-80 21 -68 132 c-38 73 -99 177 -135 232 -67 100 -93 120 -120 93z"/>
        <path d="M375 2220 c-5 -15 10 -48 48 -113 102 -171 159 -310 180 -434 l13
-78 -114 -5 c-95 -4 -117 -8 -126 -22 -8 -13 -8 -23 0 -35 9 -15 29 -18 127
-21 l116 -3 -5 -32 c-32 -188 -74 -297 -191 -494 -60 -102 -64 -133 -14 -133
24 0 35 12 89 103 109 182 171 341 193 502 27 194 -38 423 -193 683 -54 90
-65 102 -89 102 -19 0 -30 -6 -34 -20z"/>
        <path d="M2032 2150 c-230 -60 -409 -247 -457 -475 -91 -434 303 -822 739
-730 113 24 209 78 301 170 92 91 136 165 165 281 38 146 18 313 -52 447 -48
92 -173 213 -269 260 -136 67 -287 84 -427 47z m237 -69 c22 -6 18 -9 -31 -25
-54 -19 -56 -19 -107 0 -40 14 -48 20 -34 25 23 9 140 9 172 0z m-153 -106
c33 -14 34 -15 34 -74 l0 -60 -82 -62 c-112 -82 -115 -83 -181 -69 -55 11 -57
13 -68 53 -6 23 -18 67 -26 97 l-16 54 39 34 c22 18 61 46 88 62 l49 28 64
-24 c36 -14 81 -31 99 -39z m425 -25 l51 -45 -12 -50 c-28 -127 -24 -121 -91
-139 -33 -10 -67 -15 -74 -12 -8 3 -52 33 -99 67 l-86 63 0 66 0 67 93 35 92
35 38 -21 c21 -11 60 -41 88 -66z m-800 -203 l11 -49 -48 -49 c-26 -27 -51
-49 -55 -49 -12 0 13 105 38 163 29 64 35 62 54 -16z m965 -76 l13 -54 -35 34
c-52 50 -56 62 -42 116 l12 48 20 -45 c10 -25 25 -69 32 -99z m-428 29 c45
-33 82 -65 82 -70 0 -5 -14 -53 -30 -105 l-31 -95 -112 0 -113 0 -33 101 c-21
66 -30 104 -23 111 22 22 158 118 167 118 6 0 48 -27 93 -60z m358 -117 c88
-101 84 -93 73 -143 -5 -25 -19 -68 -30 -96 l-20 -50 -99 -26 -99 -26 -46 74
-46 74 37 114 38 114 45 15 c76 25 83 23 147 -50z m-758 46 l49 -10 37 -115
37 -114 -45 -70 c-29 -44 -52 -70 -63 -70 -10 0 -56 11 -103 24 l-84 23 -23
49 c-12 27 -25 69 -29 92 l-7 44 79 79 c43 43 84 79 91 79 7 0 34 -5 61 -11z
m445 -316 c13 -21 34 -56 47 -78 l23 -40 -54 -87 c-43 -69 -59 -88 -83 -92
-36 -7 -124 -8 -151 0 -11 3 -45 44 -76 93 l-56 88 49 77 49 76 114 0 115 0
23 -37z m-461 -140 c20 -4 41 -21 64 -52 18 -25 34 -50 34 -54 0 -14 -93 42
-140 84 -43 38 -44 40 -16 34 15 -3 42 -9 58 -12z m697 -9 c-28 -30 -140 -106
-146 -100 -3 3 37 77 52 94 4 4 94 30 109 31 5 1 -1 -11 -15 -25z"/>
        <path d="M1370 1945 c-10 -12 -7 -35 14 -117 14 -57 29 -133 33 -170 l6 -68
-328 -2 c-300 -3 -329 -5 -339 -20 -8 -13 -8 -23 0 -35 10 -16 39 -18 339 -21
l328 -2 -6 -73 c-4 -40 -17 -114 -30 -165 -23 -88 -24 -94 -8 -114 26 -32 57
-10 76 54 55 187 60 438 12 622 -15 54 -32 104 -38 112 -15 18 -43 18 -59 -1z"/>
        <path d="M1072 1462 c-7 -5 -23 -53 -36 -108 -36 -147 -127 -381 -155 -398 -5
-3 -118 -35 -252 -71 -133 -35 -246 -68 -252 -74 -5 -5 -7 -21 -3 -35 5 -20
13 -26 32 -26 14 0 213 49 442 110 228 60 418 108 420 105 7 -6 -93 -189 -161
-294 -65 -100 -67 -123 -15 -129 23 -3 34 10 97 110 40 62 99 165 131 230 67
130 52 119 210 158 110 28 122 35 118 68 -2 20 -9 28 -28 30 -14 2 -160 -33
-325 -77 -165 -43 -301 -78 -303 -77 -1 2 12 33 29 71 42 93 84 225 100 314
12 69 11 74 -6 87 -22 16 -25 17 -43 6z"/>
        <path d="M1685 1013 c-8 -16 -52 -102 -97 -191 l-83 -164 -290 -125 c-159 -69
-296 -130 -303 -136 -20 -16 -11 -61 14 -65 23 -3 1154 484 1166 502 14 20 8
45 -11 56 -16 8 -59 -7 -227 -80 -114 -49 -211 -90 -215 -90 -4 0 18 55 51
123 72 151 75 161 55 181 -24 23 -44 20 -60 -11z"/>
        <path d="M797 779 c-10 -6 -48 -56 -86 -112 -37 -56 -105 -149 -150 -207 -44
-57 -81 -107 -81 -111 0 -12 30 -39 43 -39 20 0 32 12 112 115 107 137 215
300 215 324 0 26 -30 43 -53 30z"/>
    </g>
</svg>
