<svg width="28" height="29" viewBox="0 0 28 29" fill="none" xmlns="http://www.w3.org/2000/svg">
<path d="M2.33331 14.5001H6.86227C7.66168 14.5001 8.39247 14.9517 8.74998 15.6667C9.10748 16.3818 9.83828 16.8334 10.6377 16.8334H17.3623C18.1617 16.8334 18.8925 16.3818 19.25 15.6667C19.6075 14.9517 20.3383 14.5001 21.1377 14.5001H25.6666M2.33331 14.5001V10.7667C2.33331 8.80656 2.33331 7.82647 2.71479 7.07778C3.05035 6.41921 3.58578 5.88378 4.24435 5.54823C4.99304 5.16675 5.97313 5.16675 7.93331 5.16675H20.0666C22.0268 5.16675 23.0069 5.16675 23.7556 5.54823C24.4142 5.88378 24.9496 6.41921 25.2852 7.07778C25.6666 7.82647 25.6666 8.80656 25.6666 10.7667V14.5001M2.33331 14.5001V18.2334C2.33331 20.1936 2.33331 21.1737 2.71479 21.9224C3.05035 22.5809 3.58578 23.1164 4.24435 23.4519C4.99304 23.8334 5.97313 23.8334 7.93331 23.8334H20.0666C22.0268 23.8334 23.0069 23.8334 23.7556 23.4519C24.4142 23.1164 24.9496 22.5809 25.2852 21.9224C25.6666 21.1737 25.6666 20.1936 25.6666 18.2334V14.5001" stroke="#344054" stroke-width="2" stroke-linecap="round" stroke-linejoin="round"/>
</svg>
