<?xml version="1.0" standalone="no"?>
<!DOCTYPE svg PUBLIC "-//W3C//DTD SVG 20010904//EN">
<svg version="1.0" xmlns="http://www.w3.org/2000/svg"
 width="3508.000000pt" height="2481.000000pt" viewBox="0 0 3508.000000 2481.000000"
 preserveAspectRatio="xMidYMid meet">

<g transform="translate(0.000000,2481.000000) scale(0.100000,-0.100000)"
fill="#9155FD" stroke="none">
<path d="M17407 22538 c-3 -13 -27 -156 -53 -319 l-48 -297 -210 -8 -210 -9
-31 -212 -31 -213 203 0 c171 0 203 -2 203 -15 0 -8 -47 -307 -105 -665 -59
-363 -105 -681 -105 -718 0 -188 103 -358 264 -437 124 -61 177 -70 396 -70
202 1 303 11 479 47 l104 21 -7 151 c-3 83 -9 188 -13 234 l-6 82 -61 1 c-177
2 -353 16 -380 29 -50 25 -69 62 -69 127 1 44 139 946 179 1169 l6 31 318 -5
318 -5 6 29 c15 73 66 407 62 411 -2 2 -146 7 -320 10 -313 6 -316 6 -311 27
12 56 97 607 94 610 -2 2 -153 6 -335 10 l-332 7 -5 -23z"/>
<path d="M15722 21787 l-313 -92 7 -50 c3 -27 50 -349 104 -715 l97 -665 -51
-74 c-90 -130 -217 -281 -275 -328 -70 -56 -182 -111 -247 -121 -116 -18 -177
23 -207 139 -10 35 -65 404 -123 819 -58 415 -107 756 -108 758 -2 2 -149 -39
-327 -91 l-324 -95 3 -33 c2 -19 59 -420 128 -891 89 -614 131 -879 149 -937
47 -146 147 -262 272 -312 51 -21 74 -24 198 -24 115 0 154 4 220 23 106 30
264 108 350 173 142 107 295 285 421 489 68 112 63 104 68 99 3 -3 29 -93 59
-202 30 -109 57 -200 61 -204 3 -3 120 27 259 67 l252 73 -167 1141 c-92 627
-168 1142 -168 1144 0 6 -47 -6 -338 -91z"/>
<path d="M19208 21592 c-48 -114 -88 -213 -90 -221 -2 -10 140 -55 565 -176
312 -89 568 -165 569 -170 0 -5 -387 -210 -860 -454 l-861 -445 -94 -221 c-52
-121 -92 -221 -88 -222 3 -1 445 -127 980 -279 536 -152 980 -278 985 -280 6
-2 54 94 106 214 l96 218 -596 168 c-327 93 -599 171 -603 174 -5 2 382 206
860 452 l868 448 96 224 c53 122 96 224 95 224 0 1 -433 124 -960 274 -528
150 -965 274 -970 276 -6 2 -50 -89 -98 -204z"/>
<path d="M12615 21654 c-173 -96 -299 -176 -560 -352 -411 -277 -578 -396
-647 -461 -226 -211 -288 -515 -164 -801 24 -56 1200 -2365 1210 -2377 2 -3
556 383 570 397 5 5 -126 273 -303 621 -171 337 -310 613 -308 614 55 36 978
683 990 695 17 16 13 26 -95 232 l-112 216 -26 -18 c-279 -198 -974 -680 -981
-680 -5 0 -75 132 -155 294 -139 276 -147 297 -148 352 0 68 15 102 72 160 21
23 258 194 525 381 l486 340 -107 223 c-60 123 -112 225 -118 227 -5 2 -63
-27 -129 -63z"/>
<path d="M22050 20555 c-234 -48 -466 -198 -730 -471 -442 -458 -562 -849
-363 -1188 195 -334 775 -726 1163 -787 98 -15 255 -6 350 21 197 55 377 176
615 415 336 335 498 607 512 860 18 314 -195 608 -651 899 -340 218 -644 303
-896 251z m481 -604 c161 -55 335 -186 380 -286 11 -24 19 -64 19 -101 0 -52
-6 -74 -39 -140 -55 -108 -187 -272 -355 -439 -146 -146 -265 -235 -361 -271
-70 -27 -191 -25 -266 4 -126 49 -274 159 -335 248 -37 54 -39 60 -39 133 1
65 5 85 32 136 108 209 477 594 658 688 99 50 211 61 306 28z"/>
<path d="M23816 18645 c-84 -30 -145 -119 -146 -213 0 -75 20 -113 108 -210
429 -470 763 -911 1064 -1407 1295 -2135 1580 -4765 774 -7141 -367 -1083
-941 -2065 -1725 -2949 -161 -182 -526 -544 -716 -710 -1032 -904 -2214 -1532
-3510 -1865 -1220 -314 -2510 -353 -3745 -115 -1502 290 -2887 978 -4055 2014
-167 148 -538 519 -686 686 -1234 1392 -1968 3084 -2134 4915 -57 632 -39
1332 51 1960 179 1256 631 2447 1329 3500 256 386 495 691 863 1099 95 105
112 138 112 215 0 153 -143 257 -298 216 -56 -15 -133 -90 -338 -327 -1688
-1944 -2457 -4464 -2144 -7015 191 -1547 789 -3025 1735 -4283 274 -364 483
-603 835 -955 354 -355 591 -561 965 -843 1296 -974 2840 -1581 4445 -1746
369 -38 519 -45 950 -45 440 0 648 11 1019 54 2937 336 5528 2111 6923 4745
1150 2170 1351 4750 553 7095 -393 1153 -1015 2204 -1858 3137 -111 123 -151
161 -191 179 -58 27 -121 30 -180 9z"/>
<path d="M17210 17549 c-439 -30 -884 -117 -1295 -254 -746 -248 -1438 -673
-1997 -1227 -854 -848 -1372 -1928 -1505 -3138 -14 -128 -18 -245 -18 -520 0
-388 11 -536 65 -855 362 -2159 2066 -3863 4225 -4225 319 -54 467 -65 855
-65 390 0 538 11 860 66 1806 305 3324 1561 3968 3284 360 965 420 2029 171
3035 -194 780 -570 1504 -1108 2130 -131 152 -435 450 -591 580 -810 673
-1757 1069 -2810 1175 -189 19 -636 27 -820 14z m-667 -931 c281 -205 539
-399 573 -432 147 -147 233 -335 255 -554 7 -64 9 -276 6 -551 -5 -487 -6
-502 -67 -659 l-31 -82 -930 0 c-983 0 -1057 -3 -1208 -46 -157 -46 -284 -119
-407 -236 -107 -102 -187 -227 -260 -406 l-9 -22 -55 36 c-135 91 -240 206
-307 338 -20 40 -123 338 -234 676 l-197 605 29 40 c154 209 510 584 729 766
452 377 919 648 1465 850 72 27 131 48 133 49 1 0 233 -167 515 -372z m2682
307 c813 -305 1532 -827 2076 -1505 49 -61 95 -121 104 -133 14 -22 3 -58
-170 -593 -102 -313 -199 -598 -215 -633 -57 -122 -159 -244 -276 -333 -58
-44 -73 -42 -74 8 0 34 -39 144 -78 219 -26 49 -64 97 -127 161 -100 100 -189
154 -325 196 l-75 22 -1141 4 -1141 3 -22 72 c-52 177 -54 194 -58 687 -5 504
1 597 44 729 48 148 153 309 260 400 27 22 271 202 543 400 374 272 500 359
515 354 11 -3 83 -29 160 -58z m907 -2933 c73 -36 141 -96 182 -160 76 -121
88 -288 29 -413 -50 -108 -129 -182 -244 -231 l-54 -23 -1775 -5 -1775 -5 -57
-28 c-117 -57 -183 -172 -176 -307 6 -126 72 -225 186 -278 l57 -27 1250 -5
1250 -5 60 -28 c156 -73 252 -248 225 -411 -24 -148 -126 -267 -275 -319 -20
-8 -260 -13 -700 -17 l-670 -5 -47 -23 c-65 -32 -125 -94 -156 -160 -34 -74
-37 -184 -5 -253 11 -25 112 -178 223 -340 112 -162 218 -323 236 -359 191
-384 -156 -826 -578 -739 -79 16 -186 71 -245 126 -46 42 -2173 2884 -2248
3003 -15 24 -42 80 -59 125 -28 75 -30 88 -31 220 0 128 2 148 29 229 72 219
260 399 478 456 71 18 138 19 2448 17 l2375 -2 67 -33z m794 -682 c108 -11
233 -48 324 -96 36 -19 299 -204 585 -412 l520 -378 3 -90 c2 -49 -2 -161 -8
-249 -58 -840 -325 -1627 -793 -2337 l-90 -138 -628 0 c-390 0 -657 4 -706 11
-109 15 -244 61 -337 117 -157 93 -191 134 -780 942 l-544 745 277 6 c219 5
288 10 336 24 155 44 300 147 386 272 41 59 93 175 110 243 18 77 16 241 -4
320 -49 188 -190 366 -357 448 -126 62 -183 72 -407 72 l-193 0 0 25 0 24 733
3 732 3 70 24 c195 65 340 181 435 348 27 48 33 52 82 62 29 6 71 12 93 14 22
2 47 4 55 5 8 1 56 -3 106 -8z m-6542 -28 l40 -7 12 -87 c16 -106 53 -218 105
-318 23 -44 278 -396 610 -840 314 -421 658 -883 766 -1027 l195 -263 -32 -52
c-40 -65 -462 -646 -537 -741 -108 -135 -293 -252 -473 -300 -84 -22 -93 -22
-775 -22 l-690 0 -58 85 c-165 241 -374 632 -486 913 -206 513 -340 1164 -341
1652 l0 111 502 364 c565 412 592 430 691 472 133 56 341 83 471 60z m4298
-2702 c637 -872 674 -928 718 -1080 30 -105 38 -290 16 -396 -16 -81 -399
-1271 -413 -1285 -13 -13 -273 -86 -420 -118 -352 -77 -572 -102 -950 -108
-390 -7 -613 10 -963 73 -145 26 -382 82 -516 123 l-70 21 -197 607 c-108 335
-202 628 -209 653 -7 27 -12 102 -12 190 1 128 4 156 27 233 15 48 43 120 63
160 31 62 541 778 564 792 5 3 115 -137 245 -312 131 -174 260 -338 287 -365
93 -90 191 -148 328 -194 79 -26 96 -28 245 -28 153 0 164 1 255 32 160 53
298 149 393 275 131 172 186 348 174 560 -12 209 -50 290 -318 678 -111 162
-205 304 -207 317 l-4 22 173 -2 174 -3 617 -845z"/>
</g>
</svg>
