<?xml version="1.0" standalone="no"?>
<!DOCTYPE svg PUBLIC "-//W3C//DTD SVG 20010904//EN"
        "http://www.w3.org/TR/2001/REC-SVG-20010904/DTD/svg10.dtd">
<svg version="1.0" xmlns="http://www.w3.org/2000/svg"
     width="512.000000pt" height="512.000000pt" viewBox="0 0 512.000000 512.000000"
     preserveAspectRatio="xMidYMid meet">

    <g transform="translate(0.000000,512.000000) scale(0.100000,-0.100000)"
       fill="#ffffff" stroke="none">
        <path d="M185 4935 l-25 -24 0 -1271 0 -1271 25 -24 24 -25 2351 0 2351 0 24
25 25 24 0 1271 0 1271 -25 24 -24 25 -2351 0 -2351 0 -24 -25z m4615 -1295
l0 -1160 -2240 0 -2240 0 0 1160 0 1160 2240 0 2240 0 0 -1160z"/>
        <path d="M1093 4630 c-130 -27 -221 -134 -231 -270 -8 -123 33 -243 112 -328
149 -159 357 -113 457 102 117 251 6 483 -241 501 -30 2 -74 0 -97 -5z m167
-178 c14 -10 33 -34 43 -53 50 -95 -39 -299 -132 -301 -44 -1 -81 29 -115 95
-44 86 -48 183 -8 235 39 51 156 64 212 24z"/>
        <path d="M3861 4625 c-156 -44 -238 -179 -214 -352 35 -243 234 -397 407 -314
167 81 257 351 173 517 -64 126 -219 190 -366 149z m180 -172 c66 -39 77 -150
25 -256 -49 -101 -120 -127 -182 -66 -89 86 -109 243 -40 308 46 43 136 50
197 14z"/>
        <path d="M2285 3898 c-43 -25 -233 -210 -239 -234 -9 -36 12 -68 126 -187 87
-91 108 -107 134 -107 32 0 69 27 78 58 10 32 -10 67 -80 142 l-68 71 82 77
c71 66 82 82 82 110 0 61 -63 100 -115 70z"/>
        <path d="M2745 3885 c-17 -16 -25 -35 -25 -57 0 -28 11 -44 82 -110 l82 -77
-68 -71 c-70 -75 -90 -110 -80 -142 9 -31 46 -58 78 -58 26 0 47 16 134 107
114 119 135 151 126 187 -6 25 -199 212 -241 234 -34 18 -62 14 -88 -13z"/>
        <path d="M861 3880 c-104 -22 -196 -92 -242 -185 -23 -49 -24 -57 -27 -316 -3
-243 -1 -267 15 -287 29 -35 74 -39 109 -9 l29 25 5 254 c5 271 6 276 60 322
49 41 89 46 355 46 315 0 360 -11 405 -100 18 -36 20 -60 20 -275 l0 -237 29
-29 c16 -16 37 -29 46 -29 29 0 75 30 81 53 3 13 4 136 2 273 -3 231 -5 252
-25 296 -32 71 -103 141 -176 174 l-62 29 -290 2 c-159 1 -310 -2 -334 -7z"/>
        <path d="M3649 3880 c-103 -18 -207 -99 -251 -195 -22 -47 -23 -64 -26 -299
-2 -137 -1 -260 2 -273 6 -23 52 -53 81 -53 9 0 30 13 46 29 l29 29 0 237 c0
215 2 239 20 275 45 89 90 100 405 100 266 0 306 -5 355 -46 54 -46 55 -51 60
-322 l5 -254 29 -25 c35 -30 80 -26 109 9 16 20 18 44 15 287 -3 259 -4 267
-28 316 -34 70 -107 139 -177 166 -55 22 -72 23 -343 25 -157 1 -306 -1 -331
-6z"/>
        <path d="M2395 3698 c-37 -32 -37 -83 -1 -115 25 -22 35 -23 160 -23 120 0
136 2 160 21 20 16 26 29 26 59 0 30 -6 43 -26 59 -24 19 -40 21 -160 21 -123
0 -135 -2 -159 -22z"/>
        <path d="M861 3494 c-20 -26 -21 -38 -21 -381 l0 -354 25 -24 24 -25 280 0
280 0 20 26 c20 26 21 38 21 384 l0 357 -23 21 c-34 32 -89 30 -116 -4 -20
-26 -21 -38 -21 -325 l0 -299 -165 0 -165 0 0 299 c0 287 -1 299 -21 325 -16
20 -29 26 -59 26 -30 0 -43 -6 -59 -26z"/>
        <path d="M3649 3501 l-24 -19 -3 -344 c-2 -188 0 -353 3 -366 3 -12 14 -31 25
-42 19 -19 35 -20 298 -20 278 0 279 0 300 23 22 23 22 27 22 385 0 349 -1
363 -20 382 -21 21 -69 26 -100 10 -35 -19 -40 -64 -40 -356 l0 -284 -165 0
-165 0 0 303 0 304 -23 21 c-29 27 -77 28 -108 3z"/>
        <path d="M997 2218 c-9 -7 -21 -26 -27 -41 -9 -25 24 -114 319 -858 317 -798
331 -836 356 -966 14 -75 32 -147 40 -160 30 -45 97 -40 130 11 15 22 14 34
-11 172 -28 148 -30 155 -360 988 -191 479 -341 844 -351 852 -23 17 -74 18
-96 2z"/>
        <path d="M1357 2218 c-9 -7 -21 -26 -28 -43 -11 -29 5 -63 326 -700 186 -368
343 -675 349 -682 6 -7 72 -28 146 -48 80 -22 139 -43 144 -52 46 -83 141
-135 246 -135 114 -1 182 32 250 120 23 30 33 34 159 59 95 19 141 33 157 47
33 31 684 1326 684 1363 0 41 -36 73 -82 73 -20 0 -41 -7 -49 -16 -8 -9 -158
-303 -334 -653 l-320 -636 -65 -17 c-105 -26 -100 -29 -100 57 0 73 2 78 39
128 22 29 53 81 70 117 52 110 59 170 65 562 6 454 21 426 -201 393 -55 -8
-179 -19 -274 -24 -240 -13 -329 -43 -395 -132 -13 -18 -29 -49 -34 -69 -5
-19 -10 -148 -10 -286 0 -215 3 -262 19 -326 22 -86 64 -174 110 -232 29 -36
31 -44 31 -123 0 -83 0 -84 -22 -77 -13 4 -45 13 -72 20 -27 7 -53 19 -58 26
-5 7 -149 292 -319 633 -171 341 -320 630 -332 643 -23 25 -73 30 -100 10z
m1499 -279 c-3 -34 -6 -79 -6 -99 l0 -38 -42 9 c-33 8 -60 5 -140 -16 -119
-30 -134 -31 -223 -5 -38 11 -96 20 -127 20 l-58 0 0 40 c0 49 29 83 86 100
22 6 113 16 204 21 91 5 192 13 225 18 33 5 66 9 74 10 11 1 13 -11 7 -60z
m-23 -307 c14 -12 17 -32 17 -113 0 -270 -109 -429 -295 -429 -143 0 -246 101
-284 278 -14 66 -14 237 -1 263 14 25 64 25 155 -1 89 -25 149 -24 255 4 88
25 123 24 153 -2z m-244 -700 l94 4 -7 -69 c-10 -113 -39 -148 -121 -149 -98
-2 -135 42 -135 160 l0 70 37 -10 c21 -6 80 -8 132 -6z"/>
        <path d="M4031 2213 c-14 -12 -124 -289 -339 -853 l-318 -835 -22 -148 c-23
-155 -21 -175 17 -204 22 -17 62 -16 88 2 27 19 36 53 58 202 15 107 32 155
331 937 173 454 314 834 314 846 0 31 -44 70 -78 70 -17 0 -39 -8 -51 -17z"/>
    </g>
</svg>
