<svg width="333" height="333" viewBox="0 0 333 333" fill="none" xmlns="http://www.w3.org/2000/svg">
<path d="M166.5 333C258.455 333 333 258.455 333 166.5C333 74.5446 258.455 0 166.5 0C74.5446 0 0 74.5446 0 166.5C0 258.455 74.5446 333 166.5 333Z" fill="#DDCAFE"/>
<path d="M266.402 333H66.6016V117.66C76.0188 117.65 85.0473 113.904 91.7063 107.245C98.3653 100.586 102.111 91.5574 102.122 82.1401H230.882C230.872 86.8052 231.787 91.4259 233.574 95.7349C235.362 100.044 237.986 103.956 241.296 107.244C244.584 110.554 248.496 113.179 252.805 114.967C257.115 116.755 261.736 117.67 266.402 117.66V333Z" fill="white"/>
<path d="M166.499 226.44C195.924 226.44 219.779 202.586 219.779 173.16C219.779 143.734 195.924 119.88 166.499 119.88C137.073 119.88 113.219 143.734 113.219 173.16C113.219 202.586 137.073 226.44 166.499 226.44Z" fill="#9155FD"/>
<path d="M185.337 198.277L166.5 179.44L147.663 198.277L141.384 191.998L160.221 173.161L141.384 154.323L147.663 148.044L166.5 166.882L185.337 148.044L191.616 154.323L172.779 173.161L191.616 191.998L185.337 198.277Z" fill="white"/>
<path d="M195.36 239.76H137.64C133.962 239.76 130.98 242.742 130.98 246.42C130.98 250.098 133.962 253.08 137.64 253.08H195.36C199.039 253.08 202.02 250.098 202.02 246.42C202.02 242.742 199.039 239.76 195.36 239.76Z" fill="#DDCAFE"/>
<path d="M215.34 266.4H117.66C113.982 266.4 111 269.382 111 273.06C111 276.738 113.982 279.72 117.66 279.72H215.34C219.018 279.72 222 276.738 222 273.06C222 269.382 219.018 266.4 215.34 266.4Z" fill="#DDCAFE"/>
</svg>
