<svg width="128" height="165" viewBox="0 0 128 165" fill="none" xmlns="http://www.w3.org/2000/svg">
<path d="M108.934 161.51C108.894 161.61 109.064 161.8 109.104 161.87C106.314 161.49 102.204 162.62 99.4539 163.21C95.1639 164.12 91.4239 164.56 86.9439 164.77C82.1339 164.98 77.2839 164.59 72.4039 164.58C69.0939 164.58 66.0239 165.12 62.9939 164.77C59.9539 165.12 56.9039 164.58 53.5739 164.58C48.6939 164.59 43.8539 164.98 39.0339 164.77C34.5639 164.56 30.8239 164.13 26.5239 163.21C24.6139 162.8 22.0539 162.13 19.7339 161.89C18.7139 161.78 17.7339 161.76 16.8839 161.87C16.9239 161.8 17.0839 161.61 17.0439 161.51C16.7939 160.82 18.0339 157.83 18.1739 156.91C18.4739 154.97 18.8439 153.08 19.2739 151.17C20.1739 147.24 20.4439 143.43 20.8739 139.49C21.7339 131.83 21.4439 123.99 22.6239 116.32C22.6639 116.07 22.7039 115.81 22.7439 115.55C23.2939 112.03 23.8639 108.55 24.5739 105C25.4139 100.81 26.5639 96.11 26.3339 91.82C26.0239 86.14 24.6839 81.06 23.1239 75.9C22.8339 74.94 22.5439 73.99 22.2439 73.02C21.8739 71.8 21.4939 70.57 21.1139 69.32C21.0839 69.24 21.0639 69.15 21.0339 69.07C20.8539 69.41 20.2239 66.26 20.0939 66.68C19.7739 48.48 15.6739 34.66 12.3439 16.85C12.4339 16.78 12.5139 16.71 12.6039 16.64C14.0639 15.49 15.5939 14.46 17.3839 13.83C21.2839 12.46 25.2339 11.2 29.1039 9.56001C32.5139 8.12001 36.0739 7.00001 39.3639 5.42001C40.5039 4.87001 41.8739 4.28001 43.1939 3.57001C45.2839 17.2 63.4139 20.5 74.0739 14.58C78.4739 12.21 80.9939 8.14001 83.3039 3.85001C84.4639 4.44001 85.6239 4.95001 86.6139 5.43001C89.9039 7.01001 93.4639 8.12001 96.8639 9.57001C100.734 11.21 104.674 12.46 108.584 13.84C110.074 14.37 111.384 15.18 112.624 16.1C112.804 16.22 112.974 16.36 113.144 16.49C107.624 33.59 107.344 51.54 105.304 69.96C105.194 69.65 105.084 69.34 104.934 69.07C104.244 71.39 103.524 73.63 102.844 75.86C101.434 80.52 100.204 85.13 99.7439 90.15C99.6939 90.7 99.6539 91.25 99.6239 91.82C99.3939 96.11 100.544 100.81 101.384 105C102.124 108.7 102.714 112.34 103.284 116.01C103.304 116.11 103.314 116.22 103.334 116.32C104.524 123.99 104.214 131.82 105.084 139.49C105.524 143.44 105.784 147.24 106.684 151.17C107.124 153.08 107.484 154.98 107.794 156.91C107.944 157.83 109.194 160.82 108.934 161.51Z" fill="#F15A24"/>
<path d="M43.0638 3.63998L43.7538 3.70998C43.5838 5.37998 45.7438 8.38998 46.6638 9.67998C48.5438 12.31 50.8238 14.25 53.4638 15.46C59.3838 18.17 66.3438 17.92 72.5538 14.76C74.8438 13.6 76.8438 11.94 78.3238 9.96998C78.5338 9.68998 78.7538 9.40997 78.9638 9.12997C80.2938 7.37997 81.6738 5.57998 82.5338 3.59998L83.6438 4.08997C82.7238 6.20997 81.3038 8.06997 79.9238 9.86997C79.7138 10.15 79.4938 10.42 79.2938 10.7C77.6938 12.82 75.5538 14.59 73.1038 15.84C69.5738 17.64 65.8038 18.54 62.1038 18.54C58.9438 18.54 55.8438 17.88 52.9538 16.56C50.1238 15.26 47.6738 13.19 45.6838 10.4C44.5538 8.81997 42.5238 5.99997 42.5238 3.89997L43.0638 3.63998Z" fill="#F15A24"/>
<path d="M22.7539 66.91C22.4339 48.71 17.3839 32.83 14.0539 15.03C13.8639 15.18 13.6739 15.32 13.4839 15.48C12.6539 16.15 11.8338 16.83 10.9738 17.48C5.65385 21.48 2.35385 27.93 1.76385 34.4C1.16385 40.97 0.0138499 47 0.0138499 53.83C0.0138499 54.85 -0.0361492 61.87 0.0538508 64.33C0.113851 65.89 0.153852 67.58 0.203852 69.19C0.273852 71.17 0.523852 71.54 2.52385 71.73C5.90385 72.04 8.89385 72.34 12.0638 73.28C14.6738 74.05 18.7239 76.2 20.4339 73.88C20.8539 73.31 21.1338 72.65 21.3538 71.94L22.7539 66.91Z" fill="#F15A24"/>
<path d="M127.664 55.63C127.664 48.8 126.524 42.77 125.924 36.2C125.334 29.73 122.034 23.28 116.714 19.28C115.654 18.48 114.634 17.61 113.584 16.8C113.444 16.68 113.294 16.58 113.154 16.47C107.644 33.57 107.364 51.52 105.314 69.94C105.914 71.72 106.064 74.08 107.234 75.66C107.594 76.15 108.064 76.44 108.604 76.59C110.604 77.13 113.554 75.67 115.604 75.06C118.774 74.12 121.774 73.83 125.144 73.52C127.154 73.33 127.404 72.97 127.464 70.98C127.524 69.36 127.554 67.68 127.614 66.11C127.754 62.66 127.664 59.12 127.664 55.63Z" fill="#F15A24"/>
<path d="M74.0738 14.58C78.4738 12.21 80.9938 8.14 83.3038 3.84C81.3338 2.84 79.3939 1.61 78.3839 0C78.3439 0.01 78.3138 0.00999664 78.2738 0.0199966C76.2438 0.349997 73.9639 1.93 71.8139 2.46C69.1539 3.11 65.7038 2.64 62.9838 2.89C60.2638 2.64 56.8138 3.12 54.1538 2.46C51.9838 1.93 49.6838 0.319995 47.6438 0.00999451C47.6238 -5.49294e-06 47.6038 0 47.5838 0C46.6638 1.47 44.9738 2.62 43.1938 3.57C45.2938 17.2 63.4238 20.5 74.0738 14.58Z" fill="#F15A24"/>
<path d="M50.3339 4.67999C51.1139 5.91999 51.9639 7.15999 53.0339 8.08999C55.2839 10.03 59.1639 11.52 62.1239 11.65C65.6939 11.81 69.6039 10.88 72.2039 8.29999C72.8239 7.68999 73.4139 7.05999 73.9939 6.40999C66.4639 9.84999 56.6239 9.26999 50.3339 4.67999Z" fill="#F15A24"/>
<path d="M77.7238 1.34001C77.9438 0.940012 78.0938 0.460012 78.2738 0.0200119C76.2438 0.350012 73.9638 1.93001 71.8138 2.46001C69.1538 3.11001 65.7038 2.63001 62.9838 2.88001C60.2638 2.63001 56.8138 3.11001 54.1538 2.46001C51.9838 1.93001 49.6838 0.32001 47.6438 0.0100098C47.8938 1.03001 48.8638 2.34001 49.3338 3.08001C49.6638 3.59001 49.9838 4.13002 50.3238 4.68002C56.6038 9.27002 66.4438 9.85001 73.9938 6.40001C74.5838 5.73001 75.1538 5.05001 75.7038 4.34001C76.4538 3.40001 77.1638 2.38001 77.7238 1.34001Z" fill="#F15A24"/>
</svg>
