<svg width="100" height="100" viewBox="0 0 100 100" fill="none" xmlns="http://www.w3.org/2000/svg">
<path d="M85.7231 0.779999C85.7231 0.779999 39.4131 2.73 12.5631 0C12.5631 0 34.3531 11.29 50.1131 9.91998C50.1131 9.92998 79.3031 7.98 85.7231 0.779999Z" fill="#F15A24"/>
<path d="M98.6531 69.86C98.5831 68.57 98.5131 67.29 98.4431 66C98.1331 59.68 97.3231 53.41 96.9431 47.15C96.5431 40.52 95.8231 33.89 94.3531 27.4C93.4131 23.23 92.3431 18.8 91.0431 14.8C90.2331 12.31 89.2231 8.80996 86.9631 7.20996L48.3731 12.56L9.78307 7.20996C7.52307 8.80996 6.51307 12.31 5.70307 14.8C4.02307 19.99 3.18307 24.8899 2.70307 30.2899C1.94307 38.7899 0.523074 47.7899 1.02307 56.3199C1.45307 63.5599 0.593075 70.43 0.383075 77.65C0.353075 78.73 -0.206924 90.1899 0.0830755 90.2599C6.29308 91.7499 12.1331 95.56 18.1531 97.44C25.8231 99.85 24.9031 99.44 32.9331 99.43C36.8431 99.43 41.4931 99.3099 45.1731 98.2299C45.9531 95.2199 45.4231 91.9 45.5931 88.7299C45.7731 85.4399 46.9131 82.46 47.3531 79.2C47.7731 76.1 48.1531 72.92 48.3831 69.71C48.6131 72.93 48.9831 76.1 49.4131 79.2C49.8531 82.46 50.9931 85.4399 51.1731 88.7299C51.3431 91.9 50.8131 95.2299 51.5931 98.2299C55.2631 99.3 59.9231 99.43 63.8331 99.43C71.8631 99.43 77.0631 99.84 84.7331 97.44C90.7531 95.55 93.3831 91.7499 99.5931 90.2599C99.3531 86.5299 99.3631 82.79 99.1831 79.06C99.0231 75.98 98.8331 72.92 98.6531 69.86Z" fill="#F15A24"/>
<path d="M72.253 28.18C79.123 27.32 86.903 26.46 93.453 23.46C92.743 20.52 91.953 17.5499 91.063 14.7899C90.253 12.2999 89.243 8.79995 86.983 7.19995L48.393 12.55L9.80302 7.19995C7.54302 8.79995 6.53302 12.2999 5.72302 14.7899C4.85302 17.4799 4.21302 20.0899 3.72302 22.7299C25.393 31.29 49.333 31.53 72.253 28.18Z" fill="#F15A24"/>
<path d="M9.8031 7.19998C9.8031 7.19998 45.8131 20.82 86.9831 7.19998C86.9831 7.19998 87.4831 6.42 85.7331 0.779999C85.7331 0.779999 47.0131 14.59 12.5731 0C12.5631 0 10.5331 1.16998 9.8031 7.19998Z" fill="#F15A24"/>
</svg>
