<svg width="92" height="93" viewBox="0 0 92 93" fill="none" xmlns="http://www.w3.org/2000/svg">
<g opacity="0.3">
<rect x="12" y="12.5" width="68" height="68" rx="34" stroke="#66C61C" stroke-width="4"/>
</g>
<g opacity="0.1">
<rect x="2" y="2.5" width="88" height="88" rx="44" stroke="#66C61C" stroke-width="4"/>
</g>
<path d="M38.9993 46.5001L43.666 51.1667L54.166 40.6667M39.4704 66.5688C40.2352 66.4677 41.0077 66.6751 41.6169 67.1443L44.4245 69.2987C45.3525 70.0117 46.6436 70.0117 47.569 69.2987L50.4829 67.0614C51.0273 66.644 51.7142 66.4599 52.3934 66.5506L56.0383 67.0303C57.1971 67.1832 58.3144 66.5377 58.7629 65.4566L60.1654 62.0656C60.4272 61.4304 60.9301 60.9275 61.5653 60.6656L64.9561 59.2631C66.0371 58.8171 66.6826 57.6972 66.5297 56.5383L66.0682 53.0255C65.9671 52.2607 66.1745 51.4881 66.6437 50.8788L68.798 48.0711C69.5109 47.143 69.5109 45.8519 68.798 44.9264L66.5608 42.0124C66.1434 41.468 65.9594 40.781 66.0501 40.1017L66.5297 36.4567C66.6826 35.2978 66.0371 34.1804 64.9561 33.7319L61.5653 32.3294C60.9301 32.0675 60.4272 31.5646 60.1654 30.9294L58.7629 27.5384C58.317 26.4573 57.1971 25.8118 56.0383 25.9647L52.3934 26.4443C51.7142 26.5377 51.0273 26.3536 50.4855 25.9388L47.5716 23.7015C46.6436 22.9885 45.3525 22.9885 44.4271 23.7015L41.5132 25.9388C40.9688 26.3536 40.2819 26.5377 39.6027 26.4495L35.9578 25.9699C34.799 25.817 33.6817 26.4625 33.2332 27.5436L31.8333 30.9346C31.5689 31.5672 31.066 32.0701 30.4334 32.3345L27.0426 33.7345C25.9616 34.183 25.3161 35.3004 25.469 36.4592L25.9486 40.1043C26.0368 40.7836 25.8527 41.4706 25.4379 42.0124L23.2007 44.9264C22.4878 45.8545 22.4878 47.1456 23.2007 48.0711L25.4379 50.9851C25.8553 51.5296 26.0393 52.2166 25.9486 52.8958L25.469 56.5409C25.3161 57.6998 25.9616 58.8171 27.0426 59.2657L30.4334 60.6682C31.0686 60.9301 31.5715 61.433 31.8333 62.0682L33.2358 65.4592C33.6817 66.5403 34.8016 67.1858 35.9604 67.0328L39.4704 66.5688Z" stroke="#66C61C" stroke-width="4" stroke-linecap="round" stroke-linejoin="round"/>
</svg>
