<svg width="16" height="16" viewBox="0 0 16 16" fill="none" xmlns="http://www.w3.org/2000/svg">
<g id="image-plus">
<path id="Icon" d="M8.33333 1.99967H5.2C4.0799 1.99967 3.51984 1.99967 3.09202 2.21766C2.71569 2.40941 2.40973 2.71537 2.21799 3.09169C2 3.51952 2 4.07957 2 5.19967V10.7997C2 11.9198 2 12.4798 2.21799 12.9077C2.40973 13.284 2.71569 13.5899 3.09202 13.7817C3.51984 13.9997 4.07989 13.9997 5.2 13.9997H11.3333C11.9533 13.9997 12.2633 13.9997 12.5176 13.9315C13.2078 13.7466 13.7469 13.2075 13.9319 12.5173C14 12.263 14 11.953 14 11.333M12.6667 5.33301V1.33301M10.6667 3.33301H14.6667M7 5.66634C7 6.40272 6.40305 6.99967 5.66667 6.99967C4.93029 6.99967 4.33333 6.40272 4.33333 5.66634C4.33333 4.92996 4.93029 4.33301 5.66667 4.33301C6.40305 4.33301 7 4.92996 7 5.66634ZM9.99336 7.94511L4.3541 13.0717C4.03691 13.3601 3.87831 13.5042 3.86429 13.6291C3.85213 13.7374 3.89364 13.8448 3.97546 13.9167C4.06985 13.9997 4.28419 13.9997 4.71286 13.9997H10.9707C11.9301 13.9997 12.4098 13.9997 12.7866 13.8385C13.2596 13.6361 13.6365 13.2593 13.8388 12.7863C14 12.4095 14 11.9298 14 10.9703C14 10.6475 14 10.4861 13.9647 10.3358C13.9204 10.1469 13.8353 9.96991 13.7155 9.81727C13.6202 9.69581 13.4941 9.59497 13.242 9.39331L11.3772 7.90145C11.1249 7.69961 10.9988 7.5987 10.8599 7.56308C10.7374 7.53169 10.6086 7.53575 10.4884 7.5748C10.352 7.6191 10.2324 7.72777 9.99336 7.94511Z" stroke="#1F2A37" stroke-width="1.33333" stroke-linecap="round" stroke-linejoin="round"/>
</g>
</svg>
