<svg width="92" height="93" viewBox="0 0 92 93" fill="none" xmlns="http://www.w3.org/2000/svg">
<g opacity="0.3">
<rect x="12" y="12.5" width="68" height="68" rx="34" stroke="#66C61C" stroke-width="4"/>
</g>
<g opacity="0.1">
<rect x="2" y="2.5" width="88" height="88" rx="44" stroke="#66C61C" stroke-width="4"/>
</g>
<path d="M39.0003 46.4998L43.667 51.1665L54.167 40.6665M39.4714 66.5685C40.2362 66.4674 41.0087 66.6748 41.6179 67.1441L44.4255 69.2985C45.3535 70.0114 46.6445 70.0114 47.57 69.2985L50.4838 67.0611C51.0282 66.6437 51.7152 66.4596 52.3944 66.5504L56.0393 67.03C57.1981 67.183 58.3154 66.5374 58.7639 65.4563L60.1664 62.0653C60.4282 61.4302 60.9311 60.9272 61.5662 60.6654L64.9571 59.2628C66.0381 58.8169 66.6836 57.6969 66.5307 56.5381L66.0692 53.0252C65.9681 52.2604 66.1755 51.4878 66.6447 50.8786L68.799 48.0709C69.5119 47.1428 69.5119 45.8517 68.799 44.9262L66.5618 42.0122C66.1444 41.4678 65.9603 40.7807 66.0511 40.1015L66.5307 36.4564C66.6836 35.2976 66.0381 34.1802 64.9571 33.7317L61.5662 32.3291C60.9311 32.0673 60.4282 31.5643 60.1664 30.9292L58.7639 27.5381C58.318 26.4571 57.1981 25.8115 56.0393 25.9645L52.3944 26.4441C51.7152 26.5374 51.0282 26.3534 50.4864 25.9386L47.5726 23.7012C46.6445 22.9883 45.3535 22.9883 44.428 23.7012L41.5142 25.9386C40.9698 26.3534 40.2828 26.5374 39.6036 26.4493L35.9588 25.9697C34.8 25.8167 33.6826 26.4622 33.2342 27.5433L31.8343 30.9343C31.5699 31.5669 31.0669 32.0699 30.4344 32.3343L27.0436 33.7343C25.9626 34.1828 25.317 35.3001 25.47 36.459L25.9496 40.1041C26.0377 40.7833 25.8537 41.4703 25.4389 42.0122L23.2017 44.9262C22.4888 45.8543 22.4888 47.1454 23.2017 48.0709L25.4389 50.9849C25.8563 51.5293 26.0403 52.2163 25.9496 52.8956L25.47 56.5407C25.317 57.6995 25.9626 58.8169 27.0436 59.2654L30.4344 60.668C31.0695 60.9298 31.5725 61.4328 31.8343 62.0679L33.2368 65.4589C33.6826 66.54 34.8026 67.1856 35.9613 67.0326L39.4714 66.5685Z" stroke="#66C61C" stroke-width="4" stroke-linecap="round" stroke-linejoin="round"/>
</svg>
